# xmcd CD database file
#
# Track frame offsets:
#	150
#	14592
#	25437
#	39270
#	53007
#	65672
#	80330
#	93295
#	107287
#	121882
#
# Disc length: 1793 seconds
#
# Revision: 2
# Processed by: cddbd v1.5.2PL0 Copyright (c) Steve Scherf et al.
# Submitted via: CDex 1.51
#
DISCID=7306ff0a
DTITLE=Ismael Miranda - Exitos de los 50
DYEAR=1982
DGENRE=Salsa
TTITLE0=Copas y Amigos
TTITLE1=Rebeldia
TTITLE2=Insaciable
TTITLE3=Carcel Sin Rejas
TTITLE4=Viejo Carrusel
TTITLE5=La Última Copa
TTITLE6=Golondrina Viajera
TTITLE7=Brindis del Despecho
TTITLE8=Amor Robado
TTITLE9=Aunque Me Maten
EXTD=YEAR: 1982
EXTT0=
EXTT1=
EXTT2=
EXTT3=
EXTT4=
EXTT5=
EXTT6=
EXTT7=
EXTT8=
EXTT9=
PLAYORDER=
